{
  "accessors": [
    {
      "bufferView": 2,
      "componentType": 5126,
      "count": 1118,
      "max": [
        2.0347867012023926,
        2.0347867012023926,
        3.6417770385742188
      ],
      "min": [
        -2.0347867012023926,
        -2.365143060684204,
        -1.0948392152786255
      ],
      "type": "VEC3"
    },
    {
      "bufferView": 2,
      "byteOffset": 13416,
      "componentType": 5126,
      "count": 1118,
      "max": [
        1.0,
        1.0,
        1.0
      ],
      "min": [
        -1.0,
        -1.0,
        -1.0
      ],
      "type": "VEC3"
    },
    {
      "bufferView": 3,
      "componentType": 5126,
      "count": 1118,
      "max": [
        1.0,
        0.9999999403953552,
        1.0,
        1.0
      ],
      "min": [
        -0.9999999403953552,
        -0.9999995231628418,
        -1.0,
        1.0
      ],
      "type": "VEC4"
    },
    {
      "bufferView": 1,
      "componentType": 5126,
      "count": 1118,
      "max": [
        0.9638684391975403,
        0.9869361519813538
      ],
      "min": [
        0.0011543157743290067,
        0.0009765628492459655
      ],
      "type": "VEC2"
    },
    {
      "bufferView": 0,
      "componentType": 5125,
      "count": 3384,
      "type": "SCALAR"
    },
    {
      "bufferView": 2,
      "byteOffset": 26832,
      "componentType": 5126,
      "count": 107,
      "max": [
        0.9947290420532227,
        -1.3713399171829224,
        1.6568479537963867
      ],
      "min": [
        -0.9947290420532227,
        -1.889243245124817,
        0.32842397689819336
      ],
      "type": "VEC3"
    },
    {
      "bufferView": 2,
      "byteOffset": 28116,
      "componentType": 5126,
      "count": 107,
      "max": [
        1.0,
        0.0008792662410996854,
        1.0
      ],
      "min": [
        -1.0,
        -0.3829922080039978,
        -1.0
      ],
      "type": "VEC3"
    },
    {
      "bufferView": 3,
      "byteOffset": 17888,
      "componentType": 5126,
      "count": 107,
      "max": [
        0.4313471019268036,
        1.0,
        0.3828878700733185,
        1.0
      ],
      "min": [
        -0.4376678168773651,
        -1.0,
        -0.22954478859901428,
        1.0
      ],
      "type": "VEC4"
    },
    {
      "bufferView": 1,
      "byteOffset": 8944,
      "componentType": 5126,
      "count": 107,
      "max": [
        0.507513165473938,
        0.8673804402351379
      ],
      "min": [
        0.0009822642896324396,
        0.4678674042224884
      ],
      "type": "VEC2"
    },
    {
      "bufferView": 0,
      "byteOffset": 13536,
      "componentType": 5125,
      "count": 360,
      "type": "SCALAR"
    },
    {
      "bufferView": 2,
      "byteOffset": 29400,
      "componentType": 5126,
      "count": 452,
      "max": [
        1.8346469402313232,
        1.8346469402313232,
        8.02287483215332
      ],
      "min": [
        -1.8346469402313232,
        -2.3648674488067627,
        0.5121530294418335
      ],
      "type": "VEC3"
    },
    {
      "bufferView": 2,
      "byteOffset": 34824,
      "componentType": 5126,
      "count": 452,
      "max": [
        1.0,
        1.0,
        1.0
      ],
      "min": [
        -1.0,
        -1.0,
        -0.9999263286590576
      ],
      "type": "VEC3"
    },
    {
      "bufferView": 1,
      "byteOffset": 9800,
      "componentType": 5126,
      "count": 452,
      "max": [
        0.9570133090019226,
        0.9873117804527283
      ],
      "min": [
        0.0009765625,
        0.0010990938171744347
      ],
      "type": "VEC2"
    },
    {
      "bufferView": 0,
      "byteOffset": 14976,
      "componentType": 5125,
      "count": 1332,
      "type": "SCALAR"
    },
    {
      "bufferView": 2,
      "byteOffset": 40248,
      "componentType": 5126,
      "count": 754,
      "max": [
        2.7353358268737793,
        1.8346469402313232,
        8.02287483215332
      ],
      "min": [
        -1.8346469402313232,
        -1.8346469402313232,
        3.5782103538513184
      ],
      "type": "VEC3"
    },
    {
      "bufferView": 2,
      "byteOffset": 49296,
      "componentType": 5126,
      "count": 754,
      "max": [
        0.9982917904853821,
        0.9999581575393677,
        1.0
      ],
      "min": [
        -0.9982917904853821,
        -0.9999581575393677,
        -1.0
      ],
      "type": "VEC3"
    },
    {
      "bufferView": 1,
      "byteOffset": 13416,
      "componentType": 5126,
      "count": 754,
      "max": [
        0.9990234375,
        0.9863154888153076
      ],
      "min": [
        0.0009765625,
        0.001087689190171659
      ],
      "type": "VEC2"
    },
    {
      "bufferView": 0,
      "byteOffset": 20304,
      "componentType": 5125,
      "count": 2484,
      "type": "SCALAR"
    },
    {
      "bufferView": 2,
      "byteOffset": 58344,
      "componentType": 5126,
      "count": 1720,
      "max": [
        1.9795559644699097,
        1.9683234691619873,
        8.190065383911133
      ],
      "min": [
        -1.9795563220977783,
        -1.9907892942428589,
        -1.1965255737304688
      ],
      "type": "VEC3"
    },
    {
      "bufferView": 2,
      "byteOffset": 78984,
      "componentType": 5126,
      "count": 1720,
      "max": [
        1.0,
        1.0,
        1.0
      ],
      "min": [
        -1.0,
        -1.0,
        -1.0
      ],
      "type": "VEC3"
    },
    {
      "bufferView": 3,
      "byteOffset": 19600,
      "componentType": 5126,
      "count": 1720,
      "max": [
        0.9951861500740051,
        1.0,
        1.0,
        1.0
      ],
      "min": [
        -0.714937686920166,
        -1.0,
        -1.0,
        1.0
      ],
      "type": "VEC4"
    },
    {
      "bufferView": 1,
      "byteOffset": 19448,
      "componentType": 5126,
      "count": 1720,
      "max": [
        0.8712520599365234,
        0.9873674511909485
      ],
      "min": [
        0.0009765625,
        0.0009765625
      ],
      "type": "VEC2"
    },
    {
      "bufferView": 0,
      "byteOffset": 30240,
      "componentType": 5125,
      "count": 5364,
      "type": "SCALAR"
    },
    {
      "bufferView": 2,
      "byteOffset": 99624,
      "componentType": 5126,
      "count": 416,
      "max": [
        0.6563569903373718,
        0.6265401840209961,
        3.7917768955230713
      ],
      "min": [
        -0.5967234969139099,
        -0.6265403032302856,
        3.5743942260742188
      ],
      "type": "VEC3"
    },
    {
      "bufferView": 2,
      "byteOffset": 104616,
      "componentType": 5126,
      "count": 416,
      "max": [
        1.0,
        1.0,
        1.0
      ],
      "min": [
        -1.0,
        -1.0,
        -1.0
      ],
      "type": "VEC3"
    },
    {
      "bufferView": 1,
      "byteOffset": 33208,
      "componentType": 5126,
      "count": 416,
      "max": [
        0.24238452315330505,
        0.9870911836624146
      ],
      "min": [
        0.0009765625,
        0.2963727116584778
      ],
      "type": "VEC2"
    },
    {
      "bufferView": 0,
      "byteOffset": 51696,
      "componentType": 5125,
      "count": 1116,
      "type": "SCALAR"
    }
  ],
  "asset": {
    "extras": {
      "author": "Nordic_Face (https://sketchfab.com/Nordic_Face)",
      "license": "CC-BY-4.0 (http://creativecommons.org/licenses/by/4.0/)",
      "source": "https://sketchfab.com/3d-models/blender-mixer-1cd762fba661454ca48097d217c89f8a",
      "title": "BLENDER / MIXER"
    },
    "generator": "Sketchfab-15.58.0",
    "version": "2.0"
  },
  "bufferViews": [
    {
      "buffer": 0,
      "byteLength": 56160,
      "name": "floatBufferViews",
      "target": 34963
    },
    {
      "buffer": 0,
      "byteLength": 36536,
      "byteOffset": 56160,
      "byteStride": 8,
      "name": "floatBufferViews",
      "target": 34962
    },
    {
      "buffer": 0,
      "byteLength": 109608,
      "byteOffset": 92696,
      "byteStride": 12,
      "name": "floatBufferViews",
      "target": 34962
    },
    {
      "buffer": 0,
      "byteLength": 47120,
      "byteOffset": 202304,
      "byteStride": 16,
      "name": "floatBufferViews",
      "target": 34962
    }
  ],
  "buffers": [
    {
      "byteLength": 249424,
      "uri": "scene.bin"
    }
  ],
  "extensionsUsed": [
    "KHR_materials_transmission"
  ],
  "images": [
    {
      "uri": "textures/Material.003_baseColor.png"
    },
    {
      "uri": "textures/Material.003_metallicRoughness.png"
    },
    {
      "uri": "textures/Material.003_normal.png"
    }
  ],
  "materials": [
    {
      "doubleSided": true,
      "name": "Material.003",
      "normalTexture": {
        "index": 2
      },
      "pbrMetallicRoughness": {
        "baseColorTexture": {
          "index": 0
        },
        "metallicFactor": 0.0,
        "metallicRoughnessTexture": {
          "index": 1
        }
      }
    },
    {
      "doubleSided": true,
      "name": "Material.005",
      "normalTexture": {
        "index": 2
      },
      "pbrMetallicRoughness": {
        "baseColorTexture": {
          "index": 0
        },
        "metallicFactor": 0.0,
        "metallicRoughnessTexture": {
          "index": 1
        }
      }
    },
    {
      "doubleSided": true,
      "name": "Material.001",
      "pbrMetallicRoughness": {
        "baseColorFactor": [
          0.007149217809741786,
          0.007149217809741786,
          0.007149217809741786,
          1.0
        ],
        "metallicFactor": 0.3459058160939157,
        "roughnessFactor": 0.0
      }
    },
    {
      "alphaMode": "BLEND",
      "doubleSided": true,
      "extensions": {
        "KHR_materials_transmission": {
          "transmissionFactor": 0.763808803988736
        }
      },
      "name": "Material",
      "pbrMetallicRoughness": {
        "baseColorFactor": [
          0.8,
          0.8,
          0.8,
          0.25
        ],
        "metallicFactor": 0.0,
        "roughnessFactor": 0.8211145618000169
      }
    },
    {
      "doubleSided": true,
      "name": "Material.002",
      "normalTexture": {
        "index": 2
      },
      "pbrMetallicRoughness": {
        "baseColorTexture": {
          "index": 0
        },
        "metallicFactor": 0.0,
        "metallicRoughnessTexture": {
          "index": 1
        }
      }
    },
    {
      "doubleSided": true,
      "name": "Material.004",
      "pbrMetallicRoughness": {
        "baseColorFactor": [
          0.290387141204943,
          0.2792556401097702,
          0.2792556401097702,
          1.0
        ],
        "roughnessFactor": 0.0
      }
    }
  ],
  "meshes": [
    {
      "name": "Cylinder_Material.003_0",
      "primitives": [
        {
          "attributes": {
            "NORMAL": 1,
            "POSITION": 0,
            "TANGENT": 2,
            "TEXCOORD_0": 3
          },
          "indices": 4,
          "material": 0,
          "mode": 4
        }
      ]
    },
    {
      "name": "Cylinder_Material.005_0",
      "primitives": [
        {
          "attributes": {
            "NORMAL": 6,
            "POSITION": 5,
            "TANGENT": 7,
            "TEXCOORD_0": 8
          },
          "indices": 9,
          "material": 1,
          "mode": 4
        }
      ]
    },
    {
      "name": "Cylinder_Material.001_0",
      "primitives": [
        {
          "attributes": {
            "NORMAL": 11,
            "POSITION": 10,
            "TEXCOORD_0": 12
          },
          "indices": 13,
          "material": 2,
          "mode": 4
        }
      ]
    },
    {
      "name": "Cylinder_Material_0",
      "primitives": [
        {
          "attributes": {
            "NORMAL": 15,
            "POSITION": 14,
            "TEXCOORD_0": 16
          },
          "indices": 17,
          "material": 3,
          "mode": 4
        }
      ]
    },
    {
      "name": "Cylinder_Material.002_0",
      "primitives": [
        {
          "attributes": {
            "NORMAL": 19,
            "POSITION": 18,
            "TANGENT": 20,
            "TEXCOORD_0": 21
          },
          "indices": 22,
          "material": 4,
          "mode": 4
        }
      ]
    },
    {
      "name": "Cylinder_Material.004_0",
      "primitives": [
        {
          "attributes": {
            "NORMAL": 24,
            "POSITION": 23,
            "TEXCOORD_0": 25
          },
          "indices": 26,
          "material": 5,
          "mode": 4
        }
      ]
    }
  ],
  "nodes": [
    {
      "children": [
        1
      ],
      "matrix": [
        1.0,
        0.0,
        0.0,
        0.0,
        0.0,
        2.220446049250313e-16,
        -1.0,
        0.0,
        0.0,
        1.0,
        2.220446049250313e-16,
        0.0,
        0.0,
        0.0,
        0.0,
        1.0
      ],
      "name": "Sketchfab_model"
    },
    {
      "children": [
        2
      ],
      "matrix": [
        0.009999999776482582,
        0.0,
        0.0,
        0.0,
        0.0,
        0.0,
        0.009999999776482582,
        0.0,
        0.0,
        -0.009999999776482582,
        0.0,
        0.0,
        0.0,
        0.0,
        0.0,
        1.0
      ],
      "name": "BLENDER render.fbx"
    },
    {
      "children": [
        3
      ],
      "name": "RootNode"
    },
    {
      "children": [
        4,
        5,
        6,
        7,
        8,
        9
      ],
      "matrix": [
        100.0,
        0.0,
        0.0,
        0.0,
        0.0,
        -1.629206793918314e-05,
        -99.99999999999868,
        0.0,
        0.0,
        99.99999999999868,
        -1.629206793918314e-05,
        0.0,
        0.0,
        120.96110534667969,
        0.0,
        1.0
      ],
      "name": "Cylinder"
    },
    {
      "mesh": 0,
      "name": "Cylinder_Material.003_0"
    },
    {
      "mesh": 1,
      "name": "Cylinder_Material.005_0"
    },
    {
      "mesh": 2,
      "name": "Cylinder_Material.001_0"
    },
    {
      "mesh": 3,
      "name": "Cylinder_Material_0"
    },
    {
      "mesh": 4,
      "name": "Cylinder_Material.002_0"
    },
    {
      "mesh": 5,
      "name": "Cylinder_Material.004_0"
    }
  ],
  "samplers": [
    {
      "magFilter": 9729,
      "minFilter": 9987,
      "wrapS": 10497,
      "wrapT": 10497
    }
  ],
  "scene": 0,
  "scenes": [
    {
      "name": "Sketchfab_Scene",
      "nodes": [
        0
      ]
    }
  ],
  "textures": [
    {
      "sampler": 0,
      "source": 0
    },
    {
      "sampler": 0,
      "source": 1
    },
    {
      "sampler": 0,
      "source": 2
    }
  ]
}
