{
  "accessors": [
    {
      "bufferView": 2,
      "componentType": 5126,
      "count": 687,
      "max": [
        21.153438568115234,
        0.760722279548645,
        16.16553497314453
      ],
      "min": [
        -34.327335357666016,
        -0.7607223987579346,
        -11.001413345336914
      ],
      "type": "VEC3"
    },
    {
      "bufferView": 2,
      "byteOffset": 8244,
      "componentType": 5126,
      "count": 687,
      "max": [
        0.9976023435592651,
        1.0,
        0.9991962313652039
      ],
      "min": [
        -0.9403706789016724,
        -1.0,
        -0.9970875382423401
      ],
      "type": "VEC3"
    },
    {
      "bufferView": 3,
      "componentType": 5126,
      "count": 687,
      "max": [
        0.9999921321868896,
        0.9817437529563904,
        0.9975307583808899,
        1.0
      ],
      "min": [
        -0.9966185688972473,
        -0.8346688747406006,
        -0.9770230054855347,
        1.0
      ],
      "type": "VEC4"
    },
    {
      "bufferView": 1,
      "componentType": 5126,
      "count": 687,
      "max": [
        0.9980461001396179,
        0.8829843401908875
      ],
      "min": [
        -0.0011103565338999033,
        0.00046958751045167446
      ],
      "type": "VEC2"
    },
    {
      "bufferView": 0,
      "componentType": 5125,
      "count": 2541,
      "type": "SCALAR"
    }
  ],
  "asset": {
    "extras": {
      "author": "Nathalie Michel (https://sketchfab.com/nathalie.michel)",
      "license": "CC-BY-4.0 (http://creativecommons.org/licenses/by/4.0/)",
      "source": "https://sketchfab.com/3d-models/big-knife-46b2c1d289f448be8d5562b10ad7f55c",
      "title": "Big Knife"
    },
    "generator": "Sketchfab-12.65.0",
    "version": "2.0"
  },
  "bufferViews": [
    {
      "buffer": 0,
      "byteLength": 10164,
      "name": "floatBufferViews",
      "target": 34963
    },
    {
      "buffer": 0,
      "byteLength": 5496,
      "byteOffset": 10164,
      "byteStride": 8,
      "name": "floatBufferViews",
      "target": 34962
    },
    {
      "buffer": 0,
      "byteLength": 16488,
      "byteOffset": 15660,
      "byteStride": 12,
      "name": "floatBufferViews",
      "target": 34962
    },
    {
      "buffer": 0,
      "byteLength": 10992,
      "byteOffset": 32148,
      "byteStride": 16,
      "name": "floatBufferViews",
      "target": 34962
    }
  ],
  "buffers": [
    {
      "byteLength": 43140,
      "uri": "scene.bin"
    }
  ],
  "images": [
    {
      "uri": "textures/Material_25_baseColor.jpeg"
    },
    {
      "uri": "textures/Material_25_metallicRoughness.png"
    },
    {
      "uri": "textures/Material_25_normal.png"
    }
  ],
  "materials": [
    {
      "doubleSided": true,
      "name": "Material_25",
      "normalTexture": {
        "index": 2
      },
      "pbrMetallicRoughness": {
        "baseColorTexture": {
          "index": 0
        },
        "metallicRoughnessTexture": {
          "index": 1
        }
      }
    }
  ],
  "meshes": [
    {
      "name": "Box003_Material #25_0",
      "primitives": [
        {
          "attributes": {
            "NORMAL": 1,
            "POSITION": 0,
            "TANGENT": 2,
            "TEXCOORD_0": 3
          },
          "indices": 4,
          "material": 0,
          "mode": 4
        }
      ]
    }
  ],
  "nodes": [
    {
      "children": [
        1
      ],
      "matrix": [
        0.017267148941755295,
        0.0,
        0.0,
        0.0,
        0.0,
        -8.725462281610637e-18,
        0.017267148941755295,
        0.0,
        0.0,
        -0.017267148941755295,
        -8.725462281610637e-18,
        0.0,
        0.0,
        3.6581239700317383,
        -1.5139579464348874e-07,
        1.0
      ],
      "name": "Sketchfab_model"
    },
    {
      "children": [
        2
      ],
      "matrix": [
        1.0,
        0.0,
        0.0,
        0.0,
        0.0,
        -1.0,
        0.0,
        0.0,
        0.0,
        0.0,
        -1.0,
        0.0,
        0.0,
        0.0,
        0.0,
        1.0
      ],
      "name": "38d4947c6ba04e08a4a2a14db097686c.fbx"
    },
    {
      "children": [
        3
      ],
      "name": "RootNode"
    },
    {
      "children": [
        4
      ],
      "matrix": [
        2.5399999618530273,
        0.0,
        0.0,
        0.0,
        0.0,
        2.5399999618530273,
        0.0,
        0.0,
        0.0,
        0.0,
        2.5399999618530273,
        0.0,
        71.42989349365234,
        0.0,
        -8.387535095214844,
        1.0
      ],
      "name": "Box003"
    },
    {
      "mesh": 0,
      "name": "Box003_Material #25_0"
    }
  ],
  "samplers": [
    {
      "magFilter": 9729,
      "minFilter": 9987,
      "wrapS": 10497,
      "wrapT": 10497
    }
  ],
  "scene": 0,
  "scenes": [
    {
      "name": "Sketchfab_Scene",
      "nodes": [
        0
      ]
    }
  ],
  "textures": [
    {
      "sampler": 0,
      "source": 0
    },
    {
      "sampler": 0,
      "source": 1
    },
    {
      "sampler": 0,
      "source": 2
    }
  ]
}
