{
  "accessors": [
    {
      "bufferView": 2,
      "componentType": 5126,
      "count": 2912,
      "max": [
        11.619999885559082,
        11.619999885559082,
        23.000001907348633
      ],
      "min": [
        -11.619999885559082,
        -11.619999885559082,
        2.3060765266418457
      ],
      "type": "VEC3"
    },
    {
      "bufferView": 2,
      "byteOffset": 34944,
      "componentType": 5126,
      "count": 2912,
      "max": [
        1.0,
        1.0,
        1.0
      ],
      "min": [
        -1.0,
        -1.0,
        -1.0
      ],
      "type": "VEC3"
    },
    {
      "bufferView": 1,
      "componentType": 5126,
      "count": 2912,
      "max": [
        0.557120680809021,
        0.5435576438903809
      ],
      "min": [
        0.442879319190979,
        0.456574410200119
      ],
      "type": "VEC2"
    },
    {
      "bufferView": 1,
      "byteOffset": 23296,
      "componentType": 5126,
      "count": 2912,
      "max": [
        0.557120680809021,
        0.5435576438903809
      ],
      "min": [
        0.442879319190979,
        0.456574410200119
      ],
      "type": "VEC2"
    },
    {
      "bufferView": 0,
      "componentType": 5125,
      "count": 5148,
      "type": "SCALAR"
    },
    {
      "bufferView": 2,
      "byteOffset": 69888,
      "componentType": 5126,
      "count": 136,
      "max": [
        10.479166984558105,
        -10.359167098999023,
        23.000001907348633
      ],
      "min": [
        -11.05916690826416,
        -11.5,
        2.3060765266418457
      ],
      "type": "VEC3"
    },
    {
      "bufferView": 2,
      "byteOffset": 71520,
      "componentType": 5126,
      "count": 136,
      "max": [
        0.5812721848487854,
        -0.5279856324195862,
        0.0
      ],
      "min": [
        -0.8492533564567566,
        -0.999991238117218,
        0.0
      ],
      "type": "VEC3"
    },
    {
      "bufferView": 1,
      "byteOffset": 46592,
      "componentType": 5126,
      "count": 136,
      "max": [
        0.962898313999176,
        1.0
      ],
      "min": [
        0.01941967010498047,
        0.0
      ],
      "type": "VEC2"
    },
    {
      "bufferView": 0,
      "byteOffset": 20592,
      "componentType": 5125,
      "count": 378,
      "type": "SCALAR"
    },
    {
      "bufferView": 2,
      "byteOffset": 73152,
      "componentType": 5126,
      "count": 368,
      "max": [
        11.5,
        11.5,
        23.000001907348633
      ],
      "min": [
        -11.5,
        -10.979166984558105,
        2.3060765266418457
      ],
      "type": "VEC3"
    },
    {
      "bufferView": 2,
      "byteOffset": 77568,
      "componentType": 5126,
      "count": 368,
      "max": [
        0.999991238117218,
        0.999991238117218,
        0.0
      ],
      "min": [
        -0.999991238117218,
        -0.8137092590332031,
        0.0
      ],
      "type": "VEC3"
    },
    {
      "bufferView": 1,
      "byteOffset": 47680,
      "componentType": 5126,
      "count": 368,
      "max": [
        0.9873128533363342,
        1.0
      ],
      "min": [
        0.005995571613311768,
        0.0
      ],
      "type": "VEC2"
    },
    {
      "bufferView": 0,
      "byteOffset": 22104,
      "componentType": 5125,
      "count": 1086,
      "type": "SCALAR"
    },
    {
      "bufferView": 2,
      "byteOffset": 81984,
      "componentType": 5126,
      "count": 90,
      "max": [
        5.112465858459473,
        -25.1048583984375,
        68.79209899902344
      ],
      "min": [
        -5.112696170806885,
        -27.434263229370117,
        61.75769805908203
      ],
      "type": "VEC3"
    },
    {
      "bufferView": 2,
      "byteOffset": 83064,
      "componentType": 5126,
      "count": 90,
      "max": [
        0.973299503326416,
        0.1542479246854782,
        0.999445378780365
      ],
      "min": [
        -0.9739761352539063,
        -0.9994235038757324,
        -0.9994180202484131
      ],
      "type": "VEC3"
    },
    {
      "bufferView": 1,
      "byteOffset": 50624,
      "componentType": 5126,
      "count": 90,
      "max": [
        0.8380560874938965,
        0.9152026176452637
      ],
      "min": [
        0.19591784477233887,
        0.524834156036377
      ],
      "type": "VEC2"
    },
    {
      "bufferView": 0,
      "byteOffset": 26448,
      "componentType": 5125,
      "count": 300,
      "type": "SCALAR"
    },
    {
      "bufferView": 2,
      "byteOffset": 84144,
      "componentType": 5126,
      "count": 90,
      "max": [
        7.691198348999023,
        -24.59885597229004,
        66.28858947753906
      ],
      "min": [
        -8.232416152954102,
        -30.56604766845703,
        59.31789016723633
      ],
      "type": "VEC3"
    },
    {
      "bufferView": 2,
      "byteOffset": 85224,
      "componentType": 5126,
      "count": 90,
      "max": [
        0.9879417419433594,
        0.9177363514900208,
        1.0
      ],
      "min": [
        -0.9879417419433594,
        -0.9177362322807312,
        -1.0
      ],
      "type": "VEC3"
    },
    {
      "bufferView": 1,
      "byteOffset": 51344,
      "componentType": 5126,
      "count": 90,
      "max": [
        1.0,
        1.0
      ],
      "min": [
        0.0,
        0.0
      ],
      "type": "VEC2"
    },
    {
      "bufferView": 1,
      "byteOffset": 52064,
      "componentType": 5126,
      "count": 90,
      "max": [
        1.0,
        1.0
      ],
      "min": [
        0.0,
        0.0
      ],
      "type": "VEC2"
    },
    {
      "bufferView": 0,
      "byteOffset": 27648,
      "componentType": 5125,
      "count": 504,
      "type": "SCALAR"
    },
    {
      "bufferView": 2,
      "byteOffset": 86304,
      "componentType": 5126,
      "count": 1784,
      "max": [
        11.294219017028809,
        11.285170555114746,
        22.698017120361328
      ],
      "min": [
        -11.28347110748291,
        -11.5,
        22.437789916992188
      ],
      "type": "VEC3"
    },
    {
      "bufferView": 2,
      "byteOffset": 107712,
      "componentType": 5126,
      "count": 1784,
      "max": [
        1.0,
        0.999991238117218,
        1.0
      ],
      "min": [
        -1.0,
        -0.999991238117218,
        -0.9999881386756897
      ],
      "type": "VEC3"
    },
    {
      "bufferView": 1,
      "byteOffset": 52784,
      "componentType": 5126,
      "count": 1784,
      "max": [
        1.0,
        1.0
      ],
      "min": [
        0.0,
        0.0
      ],
      "type": "VEC2"
    },
    {
      "bufferView": 1,
      "byteOffset": 67056,
      "componentType": 5126,
      "count": 1784,
      "max": [
        1.0,
        1.0
      ],
      "min": [
        0.0,
        0.0
      ],
      "type": "VEC2"
    },
    {
      "bufferView": 0,
      "byteOffset": 29664,
      "componentType": 5125,
      "count": 5304,
      "type": "SCALAR"
    }
  ],
  "asset": {
    "extras": {
      "author": "NOUR SH (https://sketchfab.com/jcnour46)",
      "license": "CC-BY-4.0 (http://creativecommons.org/licenses/by/4.0/)",
      "source": "https://sketchfab.com/3d-models/wait-gamal-tahini-10-kg-046be643e4e64d50adf94d53b0910f92",
      "title": "WAIT GAMAL TAHINI 10 KG"
    },
    "generator": "Sketchfab-16.74.0",
    "version": "2.0"
  },
  "bufferViews": [
    {
      "buffer": 0,
      "byteLength": 50880,
      "name": "floatBufferViews",
      "target": 34963
    },
    {
      "buffer": 0,
      "byteLength": 81328,
      "byteOffset": 50880,
      "byteStride": 8,
      "name": "floatBufferViews",
      "target": 34962
    },
    {
      "buffer": 0,
      "byteLength": 129120,
      "byteOffset": 132208,
      "byteStride": 12,
      "name": "floatBufferViews",
      "target": 34962
    }
  ],
  "buffers": [
    {
      "byteLength": 261328,
      "uri": "scene.bin"
    }
  ],
  "images": [
    {
      "uri": "textures/sutlu_tatli_baseColor.jpeg"
    },
    {
      "uri": "textures/18_-_Default_baseColor.png"
    },
    {
      "uri": "textures/17_-_Default_baseColor.png"
    }
  ],
  "materials": [
    {
      "doubleSided": true,
      "name": "sutlu_tatli",
      "pbrMetallicRoughness": {
        "baseColorTexture": {
          "index": 0
        },
        "metallicFactor": 0.0,
        "roughnessFactor": 0.6
      }
    },
    {
      "doubleSided": true,
      "name": "18_-_Default",
      "pbrMetallicRoughness": {
        "baseColorTexture": {
          "index": 1
        },
        "metallicFactor": 0.0,
        "roughnessFactor": 0.6
      }
    },
    {
      "doubleSided": true,
      "name": "17_-_Default",
      "pbrMetallicRoughness": {
        "baseColorTexture": {
          "index": 2
        },
        "metallicFactor": 0.0,
        "roughnessFactor": 0.6
      }
    },
    {
      "doubleSided": true,
      "name": "23_-_Default",
      "pbrMetallicRoughness": {
        "metallicFactor": 0.0,
        "roughnessFactor": 0.6
      }
    }
  ],
  "meshes": [
    {
      "name": "Box001_sutlu_tatli_0",
      "primitives": [
        {
          "attributes": {
            "NORMAL": 1,
            "POSITION": 0,
            "TEXCOORD_0": 2,
            "TEXCOORD_1": 3
          },
          "indices": 4,
          "material": 0,
          "mode": 4
        }
      ]
    },
    {
      "name": "Box001_18 - Default_0",
      "primitives": [
        {
          "attributes": {
            "NORMAL": 6,
            "POSITION": 5,
            "TEXCOORD_0": 7
          },
          "indices": 8,
          "material": 1,
          "mode": 4
        }
      ]
    },
    {
      "name": "Box001_17 - Default_0",
      "primitives": [
        {
          "attributes": {
            "NORMAL": 10,
            "POSITION": 9,
            "TEXCOORD_0": 11
          },
          "indices": 12,
          "material": 2,
          "mode": 4
        }
      ]
    },
    {
      "name": "Trash_CAn_23 - Default_0",
      "primitives": [
        {
          "attributes": {
            "NORMAL": 14,
            "POSITION": 13,
            "TEXCOORD_0": 15
          },
          "indices": 16,
          "material": 3,
          "mode": 4
        }
      ]
    },
    {
      "name": "Trash_CAn_sutlu_tatli_0",
      "primitives": [
        {
          "attributes": {
            "NORMAL": 18,
            "POSITION": 17,
            "TEXCOORD_0": 19,
            "TEXCOORD_1": 20
          },
          "indices": 21,
          "material": 0,
          "mode": 4
        }
      ]
    },
    {
      "name": "Object001_sutlu_tatli_0",
      "primitives": [
        {
          "attributes": {
            "NORMAL": 23,
            "POSITION": 22,
            "TEXCOORD_0": 24,
            "TEXCOORD_1": 25
          },
          "indices": 26,
          "material": 0,
          "mode": 4
        }
      ]
    }
  ],
  "nodes": [
    {
      "children": [
        1
      ],
      "matrix": [
        1.0,
        0.0,
        0.0,
        0.0,
        0.0,
        2.220446049250313e-16,
        -1.0,
        0.0,
        0.0,
        1.0,
        2.220446049250313e-16,
        0.0,
        0.0,
        0.0,
        0.0,
        1.0
      ],
      "name": "Sketchfab_model"
    },
    {
      "children": [
        2
      ],
      "matrix": [
        0.009999999776482582,
        0.0,
        0.0,
        0.0,
        0.0,
        0.0,
        0.009999999776482582,
        0.0,
        0.0,
        -0.009999999776482582,
        0.0,
        0.0,
        0.0,
        0.0,
        0.0,
        1.0
      ],
      "name": "dde2d92eb23e4c9ba6db9222e8eba58f.fbx"
    },
    {
      "children": [
        3,
        7,
        11
      ],
      "name": "RootNode"
    },
    {
      "children": [
        4,
        5,
        6
      ],
      "matrix": [
        1.0,
        0.0,
        0.0,
        0.0,
        0.0,
        2.220446049250313e-16,
        -1.0,
        0.0,
        0.0,
        1.0,
        2.220446049250313e-16,
        0.0,
        0.0,
        -2.1583786010742188,
        0.0,
        1.0
      ],
      "name": "Box001"
    },
    {
      "mesh": 0,
      "name": "Box001_sutlu_tatli_0"
    },
    {
      "mesh": 1,
      "name": "Box001_18 - Default_0"
    },
    {
      "mesh": 2,
      "name": "Box001_17 - Default_0"
    },
    {
      "children": [
        8
      ],
      "matrix": [
        -0.303950632377192,
        -2.92015081958459e-08,
        -0.3842337959812565,
        0.0,
        8.071650782001528e-08,
        -0.48991999030112504,
        -2.6617728815255146e-08,
        0.0,
        -0.3842337959812491,
        -7.981810597244837e-08,
        0.303950632377192,
        0.0,
        9.191553115844727,
        20.95855712890625,
        -8.831352233886719,
        1.0
      ],
      "name": "Trash_CAn"
    },
    {
      "children": [
        9,
        10
      ],
      "matrix": [
        1.0,
        0.0,
        -0.0,
        0.0,
        0.0,
        1.0,
        0.0,
        0.0,
        0.0,
        0.0,
        1.0,
        0.0,
        0.0,
        26.2695617675781,
        -63.1189308166504,
        1.0
      ],
      "name": "Object_8"
    },
    {
      "mesh": 3,
      "name": "Trash_CAn_23 - Default_0"
    },
    {
      "mesh": 4,
      "name": "Trash_CAn_sutlu_tatli_0"
    },
    {
      "children": [
        12
      ],
      "matrix": [
        1.0,
        0.0,
        0.0,
        0.0,
        0.0,
        2.220446049250313e-16,
        -1.0,
        0.0,
        0.0,
        1.0,
        2.220446049250313e-16,
        0.0,
        0.0,
        -2.1583786010742188,
        -0.13515925407409668,
        1.0
      ],
      "name": "Object001"
    },
    {
      "mesh": 5,
      "name": "Object001_sutlu_tatli_0"
    }
  ],
  "samplers": [
    {
      "magFilter": 9729,
      "minFilter": 9987,
      "wrapS": 10497,
      "wrapT": 10497
    }
  ],
  "scene": 0,
  "scenes": [
    {
      "name": "Sketchfab_Scene",
      "nodes": [
        0
      ]
    }
  ],
  "textures": [
    {
      "sampler": 0,
      "source": 0
    },
    {
      "sampler": 0,
      "source": 1
    },
    {
      "sampler": 0,
      "source": 2
    }
  ]
}
