{
  "accessors": [
    {
      "bufferView": 2,
      "componentType": 5126,
      "count": 14424,
      "max": [
        9.781333923339844,
        6.6447248458862305,
        33.0175666809082
      ],
      "min": [
        -9.723003387451172,
        -6.717661380767822,
        1.3402557373046875
      ],
      "type": "VEC3"
    },
    {
      "bufferView": 2,
      "byteOffset": 173088,
      "componentType": 5126,
      "count": 14424,
      "max": [
        0.9999984502792358,
        0.9999990463256836,
        0.9999920725822449
      ],
      "min": [
        -0.9999904632568359,
        -0.9999993443489075,
        -0.9999970197677612
      ],
      "type": "VEC3"
    },
    {
      "bufferView": 1,
      "componentType": 5126,
      "count": 14424,
      "max": [
        0.9997550249099731,
        0.4128420054912567
      ],
      "min": [
        0.00024399999529123306,
        0.00024399999529123306
      ],
      "type": "VEC2"
    },
    {
      "bufferView": 0,
      "componentType": 5125,
      "count": 62292,
      "type": "SCALAR"
    }
  ],
  "asset": {
    "extras": {
      "author": "KSFX.NO (https://sketchfab.com/KSFX)",
      "license": "CC-BY-4.0 (http://creativecommons.org/licenses/by/4.0/)",
      "source": "https://sketchfab.com/3d-models/olive-oil-db96970b2e1643bdbfa4090ed87b7365",
      "title": "Olive Oil"
    },
    "generator": "Sketchfab-12.66.0",
    "version": "2.0"
  },
  "bufferViews": [
    {
      "buffer": 0,
      "byteLength": 249168,
      "name": "floatBufferViews",
      "target": 34963
    },
    {
      "buffer": 0,
      "byteLength": 115392,
      "byteOffset": 249168,
      "byteStride": 8,
      "name": "floatBufferViews",
      "target": 34962
    },
    {
      "buffer": 0,
      "byteLength": 346176,
      "byteOffset": 364560,
      "byteStride": 12,
      "name": "floatBufferViews",
      "target": 34962
    }
  ],
  "buffers": [
    {
      "byteLength": 710736,
      "uri": "scene.bin"
    }
  ],
  "images": [
    {
      "uri": "textures/model_Material_u1_v1_baseColor.jpeg"
    },
    {
      "uri": "textures/model_Material_u1_v1_metallicRoughness.png"
    }
  ],
  "materials": [
    {
      "doubleSided": true,
      "name": "model_Material_u1_v1",
      "pbrMetallicRoughness": {
        "baseColorFactor": [
          0.8559597307705933,
          0.8559597307705933,
          0.8559597307705933,
          1.0
        ],
        "baseColorTexture": {
          "index": 0
        },
        "metallicFactor": 0.7554679491141119,
        "metallicRoughnessTexture": {
          "index": 1
        }
      }
    }
  ],
  "meshes": [
    {
      "name": "Object_0",
      "primitives": [
        {
          "attributes": {
            "NORMAL": 1,
            "POSITION": 0,
            "TEXCOORD_0": 2
          },
          "indices": 3,
          "material": 0,
          "mode": 4
        }
      ]
    }
  ],
  "nodes": [
    {
      "children": [
        1
      ],
      "matrix": [
        0.8934682607650757,
        -9.972607917203019e-17,
        0.44912633299827576,
        0.0,
        0.44912633299827576,
        1.9838980697463608e-16,
        -0.8934682607650757,
        0.0,
        0.0,
        1.0,
        2.220446049250313e-16,
        0.0,
        0.019485948607325554,
        2.0457344941051606e-18,
        -0.009213169105350971,
        1.0
      ],
      "name": "Sketchfab_model"
    },
    {
      "children": [
        2
      ],
      "name": "model.obj.cleaner.materialmerger.gles"
    },
    {
      "mesh": 0,
      "name": "Object_2"
    }
  ],
  "samplers": [
    {
      "magFilter": 9729,
      "minFilter": 9987,
      "wrapS": 10497,
      "wrapT": 10497
    }
  ],
  "scene": 0,
  "scenes": [
    {
      "name": "Sketchfab_Scene",
      "nodes": [
        0
      ]
    }
  ],
  "textures": [
    {
      "sampler": 0,
      "source": 0
    },
    {
      "sampler": 0,
      "source": 1
    }
  ]
}
